<?xml version="1.0" encoding="UTF-8"?>
<svg version="1.1" xmlns="http://www.w3.org/2000/svg" width="78" height="77">
<path d="M0 0 C10.6177812 4.26719339 21.65543697 10.31087395 27 21 C27.3493047 26.41422291 27.48433932 28.75819561 24 33 C24.29485154 34.85266073 24.29485154 34.85266073 25 37 C25.10281427 39.67317102 25.0446078 42.32353204 25 45 C24.01 45 23.02 45 22 45 C21.12132271 41.26562152 20.91087781 37.83225427 21 34 C19.98679687 33.76216797 19.98679687 33.76216797 18.953125 33.51953125 C11.71989799 31.62760338 11.71989799 31.62760338 8.5625 28.875 C5.05070682 22.41330055 3.67673632 15.7354938 2.47265625 8.53125 C1.92080526 5.57588271 1.06332003 2.81020293 0 0 Z " fill="#04A1E4" transform="translate(35,8)"/>
<path d="M0 0 C2.0343459 1.41519715 2.90410393 2.54982123 3.421875 4.98046875 C3.66273952 6.98176954 3.83532741 8.9909944 4 11 C4.99 10.896875 5.98 10.79375 7 10.6875 C11.81829121 10.69727341 15.45173901 12.85411912 19 16 C22.26444388 20.25422819 24.08514355 24.53942145 25.625 29.625 C27.42298237 35.46779424 27.42298237 35.46779424 30 41 C18.33668718 39.05611453 8.58178747 34.22277709 1 25 C-0.11445498 22.77109005 -0.16480286 21.46944894 -0.1875 19 C-0.20167969 18.29875 -0.21585938 17.5975 -0.23046875 16.875 C0 15 0 15 2 13 C1.77183594 12.31292969 1.54367188 11.62585937 1.30859375 10.91796875 C0.87740234 9.56638672 0.87740234 9.56638672 0.4375 8.1875 C0.14746094 7.29417969 -0.14257812 6.40085937 -0.44140625 5.48046875 C-1 3 -1 3 0 0 Z " fill="#06A1E4" transform="translate(16,20)"/>
<path d="M0 0 C9.59453303 4.03872437 9.59453303 4.03872437 13 7 C10.69 6.67 8.38 6.34 6 6 C6.42436355 8.89831279 6.86391857 11.79292234 7.3125 14.6875 C7.43044922 15.50412109 7.54839844 16.32074219 7.66992188 17.16210938 C8.37902115 21.65307147 9.0136993 25.40537879 12 29 C14.22857246 30.22171716 14.22857246 30.22171716 16.6875 30.8125 C17.49574219 31.04582031 18.30398437 31.27914062 19.13671875 31.51953125 C20.05904297 31.75736328 20.05904297 31.75736328 21 32 C20.6390625 31.09636719 20.278125 30.19273438 19.90625 29.26171875 C19.4421875 28.08222656 18.978125 26.90273438 18.5 25.6875 C18.0359375 24.51574219 17.571875 23.34398437 17.09375 22.13671875 C16 19 16 19 16 16 C21 21.75 21 21.75 21 24 C21.66 24 22.32 24 23 24 C23 25.32 23 26.64 23 28 C25.33075929 27.04134491 25.33075929 27.04134491 27 24 C26.25 30.75 26.25 30.75 24 33 C24.30903983 34.33917261 24.65023242 35.67088318 25 37 C25.09730035 39.67319897 25.04460478 42.32371292 25 45 C24.01 45 23.02 45 22 45 C21.12132271 41.26562152 20.91087781 37.83225427 21 34 C19.98679687 33.76216797 19.98679687 33.76216797 18.953125 33.51953125 C11.71989799 31.62760338 11.71989799 31.62760338 8.5625 28.875 C5.05070682 22.41330055 3.67673632 15.7354938 2.47265625 8.53125 C1.92080526 5.57588271 1.06332003 2.81020293 0 0 Z " fill="#277AA5" transform="translate(35,8)"/>
<path d="M0 0 C2.0343459 1.41519715 2.90410393 2.54982123 3.421875 4.98046875 C3.66273952 6.98176954 3.83532741 8.9909944 4 11 C4.99 10.896875 5.98 10.79375 7 10.6875 C11.87302406 10.63767358 15.1827793 13.22383949 19 16 C18.67 16.66 18.34 17.32 18 18 C17.67 17.67 17.34 17.34 17 17 C14.67182036 16.63239269 12.3381615 16.29758419 10 16 C9.67 15.01 9.34 14.02 9 13 C8.34 13 7.68 13 7 13 C7.46800711 17.05606165 7.87953208 20.46588679 10 24 C10.66 24 11.32 24 12 24 C12.33 24.99 12.66 25.98 13 27 C8.00724943 25.72278474 5.42388092 23.82669043 2 20 C2 20.66 2 21.32 2 22 C1.34 22 0.68 22 0 22 C-0.125 18.625 -0.125 18.625 0 15 C0.66 14.34 1.32 13.68 2 13 C1.77183594 12.31292969 1.54367188 11.62585937 1.30859375 10.91796875 C0.87740234 9.56638672 0.87740234 9.56638672 0.4375 8.1875 C0.14746094 7.29417969 -0.14257812 6.40085937 -0.44140625 5.48046875 C-1 3 -1 3 0 0 Z " fill="#1E85B3" transform="translate(16,20)"/>
<path d="M0 0 C2.54716937 2.25016387 3.6616163 4.18782486 4.7890625 7.37890625 C5.09070312 8.21744141 5.39234375 9.05597656 5.703125 9.91992188 C6.00734375 10.79197266 6.3115625 11.66402344 6.625 12.5625 C7.24139681 14.29325055 7.8585482 16.02373261 8.4765625 17.75390625 C8.74549316 18.52033447 9.01442383 19.2867627 9.29150391 20.07641602 C9.97601446 22.04412826 9.97601446 22.04412826 11 24 C3.93463111 22.74646681 -1.71456473 20.43796251 -8 17 C-4.79937313 15.39968656 -2.27728194 16.96826309 1 18 C0.649375 17.278125 0.29875 16.55625 -0.0625 15.8125 C-1.14807732 12.55576805 -0.76572907 11.29263498 0 8 C0.09476891 5.32651921 0.04536231 2.67637657 0 0 Z " fill="#209ED3" transform="translate(35,37)"/>
<path d="M0 0 C3.71986987 2.04202647 6.42356061 4.21413458 9.25 7.375 C10.27867188 8.50035156 10.27867188 8.50035156 11.328125 9.6484375 C13.14362343 12.20201239 13.72734558 13.89791293 14 17 C13.0625 19.3125 13.0625 19.3125 12 21 C11.01 20.67 10.02 20.34 9 20 C9.33 19.01 9.66 18.02 10 17 C9.01 17.33 8.02 17.66 7 18 C6.896875 17.21625 6.79375 16.4325 6.6875 15.625 C6.22404978 12.66954819 6.22404978 12.66954819 3 11 C3.66 12.65 4.32 14.3 5 16 C3 14.25 3 14.25 1 12 C1 8 1 8 2.5 6.25 C3.2425 5.63125 3.2425 5.63125 4 5 C3.01 4.319375 3.01 4.319375 2 3.625 C1.34 3.08875 0.68 2.5525 0 2 C0 1.34 0 0.68 0 0 Z " fill="#0A9FE1" transform="translate(48,15)"/>
<path d="M0 0 C4.8 3.44615385 4.8 3.44615385 5.8125 6.25 C5.874375 6.8275 5.93625 7.405 6 8 C6.66 8 7.32 8 8 8 C8 9.32 8 10.64 8 12 C10.33075929 11.04134491 10.33075929 11.04134491 12 8 C11.25 14.75 11.25 14.75 9 17 C9.30903983 18.33917261 9.65023242 19.67088318 10 21 C10.09730035 23.67319897 10.04460478 26.32371292 10 29 C9.01 29 8.02 29 7 29 C6.32566432 26.13407338 6.00888321 23.77347802 6.125 20.8125 C6.08375 19.884375 6.0425 18.95625 6 18 C5.01 17.34 4.02 16.68 3 16 C3.99 16 4.98 16 6 16 C5.65066406 15.09636719 5.30132812 14.19273438 4.94140625 13.26171875 C4.48636719 12.08222656 4.03132813 10.90273438 3.5625 9.6875 C3.11003906 8.51574219 2.65757813 7.34398437 2.19140625 6.13671875 C1.42015245 4.10617185 0.68687358 2.06062074 0 0 Z " fill="#0E5B8F" transform="translate(50,24)"/>
<path d="M0 0 C0.721875 0.763125 1.44375 1.52625 2.1875 2.3125 C5.61852554 5.59103552 8.14910037 8 13 8 C13 8.99 13 9.98 13 11 C11.35 10.67 9.7 10.34 8 10 C8.66 11.65 9.32 13.3 10 15 C6.55571735 13.55218207 4.63869038 11.72305391 2.25 8.875 C1.63640625 8.15054688 1.0228125 7.42609375 0.390625 6.6796875 C-0.06828125 6.12539063 -0.5271875 5.57109375 -1 5 C-0.34 4.67 0.32 4.34 1 4 C0.67 2.68 0.34 1.36 0 0 Z " fill="#0F89C0" transform="translate(17,38)"/>
<path d="M0 0 C4.455 0.99 4.455 0.99 9 2 C9.33 1.34 9.66 0.68 10 0 C10.99 0 11.98 0 13 0 C13 0.99 13 1.98 13 3 C13.928125 3.12375 13.928125 3.12375 14.875 3.25 C17 4 17 4 18.1328125 6.046875 C18.41898438 6.69140625 18.70515625 7.3359375 19 8 C11.93463111 6.74646681 6.28543527 4.43796251 0 1 C0 0.67 0 0.34 0 0 Z " fill="#187DB4" transform="translate(27,53)"/>
<path d="M0 0 C1.875 0.25 1.875 0.25 4 1 C5.125 2.9375 5.125 2.9375 6 5 C6.66 5.66 7.32 6.32 8 7 C6.625 9.5 6.625 9.5 5 12 C4.34 12 3.68 12 3 12 C3 11.01 3 10.02 3 9 C2.01 8.67 1.02 8.34 0 8 C0 5.36 0 2.72 0 0 Z " fill="#01A3EA" transform="translate(41,14)"/>
<path d="M0 0 C9.59453303 4.03872437 9.59453303 4.03872437 13 7 C10.36 6.67 7.72 6.34 5 6 C5 7.65 5 9.3 5 11 C2.77174356 8.77174356 2.30760631 7.34238372 1.375 4.375 C1.11460938 3.55773437 0.85421875 2.74046875 0.5859375 1.8984375 C0.39257812 1.27195312 0.19921875 0.64546875 0 0 Z " fill="#196191" transform="translate(35,8)"/>
<path d="M0 0 C3.34944548 5.02416822 3.09834146 9.09951257 3 15 C2.01 15 1.02 15 0 15 C-0.67433568 12.13407338 -0.99111679 9.77347802 -0.875 6.8125 C-0.91625 5.884375 -0.9575 4.95625 -1 4 C-1.99 3.34 -2.98 2.68 -4 2 C-2.68 2 -1.36 2 0 2 C0 1.34 0 0.68 0 0 Z " fill="#050812" transform="translate(57,38)"/>
<path d="M0 0 C3.98175544 2.10148204 6.35039045 4.36905358 9 8 C7.68 8.33 6.36 8.66 5 9 C5.66 10.32 6.32 11.64 7 13 C5.68 12.34 4.36 11.68 3 11 C3.66 12.65 4.32 14.3 5 16 C3 14.25 3 14.25 1 12 C1 8 1 8 2.5 6.25 C3.2425 5.63125 3.2425 5.63125 4 5 C3.01 4.319375 3.01 4.319375 2 3.625 C1.34 3.08875 0.68 2.5525 0 2 C0 1.34 0 0.68 0 0 Z " fill="#1183BB" transform="translate(48,15)"/>
<path d="M0 0 C2.04219706 1.69179328 2.91793306 2.63727666 3.51171875 5.26171875 C3.56972656 6.06222656 3.62773437 6.86273438 3.6875 7.6875 C3.75324219 8.49574219 3.81898437 9.30398437 3.88671875 10.13671875 C3.92410156 10.75160156 3.96148438 11.36648437 4 12 C3.01 11.67 2.02 11.34 1 11 C0.63890458 9.35567294 0.28629924 7.7094792 -0.0625 6.0625 C-0.25972656 5.14597656 -0.45695313 4.22945312 -0.66015625 3.28515625 C-0.77230469 2.53105469 -0.88445313 1.77695312 -1 1 C-0.67 0.67 -0.34 0.34 0 0 Z " fill="#242731" transform="translate(16,20)"/>
<path d="M0 0 C2.36678851 2.06139645 3.8281942 3.50912627 4.875 6.5 C5.01570001 9.31400019 4.48400777 10.64304648 3 13 C2.01 12.67 1.02 12.34 0 12 C0.185625 10.948125 0.37125 9.89625 0.5625 8.8125 C0.95079331 5.42880118 0.88247485 3.23574112 0 0 Z " fill="#1D8BC1" transform="translate(57,23)"/>
<path d="M0 0 C1.70884005 1.62339805 3.37446717 3.29319053 5 5 C5 5.66 5 6.32 5 7 C5.66 7 6.32 7 7 7 C7.33 7.99 7.66 8.98 8 10 C0.84708249 7.93360161 0.84708249 7.93360161 -1 5 C-0.6875 2.3125 -0.6875 2.3125 0 0 Z " fill="#0A618A" transform="translate(21,37)"/>
<path d="M0 0 C0.99 1.32 1.98 2.64 3 4 C2.02149805 5.02104551 1.02019573 6.0206121 0 7 C-0.33 7 -0.66 7 -1 7 C-1 7.66 -1 8.32 -1 9 C-1.66 9 -2.32 9 -3 9 C-3.1875 5.625 -3.1875 5.625 -3 2 C-2.01 1.34 -1.02 0.68 0 0 Z " fill="#177DAA" transform="translate(19,33)"/>
<path d="M0 0 C2 2 2 2 2 5 C0.51882199 4.71872579 -0.95993249 4.42466268 -2.4375 4.125 C-3.26121094 3.96257813 -4.08492187 3.80015625 -4.93359375 3.6328125 C-5.61550781 3.42398438 -6.29742187 3.21515625 -7 3 C-7.33 2.34 -7.66 1.68 -8 1 C-5.36 1.33 -2.72 1.66 0 2 C0 1.34 0 0.68 0 0 Z " fill="#1192D7" transform="translate(54,35)"/>
<path d="M0 0 C2.72107452 2.3500189 3.96702492 4.55674975 5 8 C4.67 8.99 4.34 9.98 4 11 C4 10.34 4 9.68 4 9 C3.34 9 2.68 9 2 9 C0.50178941 5.62902617 0 3.79557881 0 0 Z " fill="#75B5CC" transform="translate(35,37)"/>
<path d="M0 0 C0.99 0 1.98 0 3 0 C3 0.66 3 1.32 3 2 C4.32 2.66 5.64 3.32 7 4 C7 4.99 7 5.98 7 7 C6.34 6.34 5.68 5.68 5 5 C2.93125966 4.3574765 2.93125966 4.3574765 1 4 C0.67 2.68 0.34 1.36 0 0 Z " fill="#0A9FDB" transform="translate(45,15)"/>
</svg>
